<mxfile host="app.diagrams.net" modified="2023-11-01T20:08:41.398Z" agent="Mozilla/5.0 (Windows NT 10.0; Win64; x64) AppleWebKit/537.36 (KHTML, like Gecko) Chrome/118.0.0.0 Safari/537.36" etag="PzUiJNSziuecIXpviODj" version="22.0.8" type="device">
  <diagram name="Страница — 1" id="sn9xkF8UQblbpItbQFK3">
    <mxGraphModel dx="2414" dy="1874" grid="1" gridSize="10" guides="1" tooltips="1" connect="1" arrows="1" fold="1" page="1" pageScale="1" pageWidth="1169" pageHeight="827" math="0" shadow="0">
      <root>
        <mxCell id="0" />
        <mxCell id="1" parent="0" />
        <mxCell id="bji3vDAeX96K5QnzMQ1H-1" value="Actor" style="shape=umlActor;verticalLabelPosition=bottom;verticalAlign=top;html=1;outlineConnect=0;" vertex="1" parent="1">
          <mxGeometry x="413" y="10" width="30" height="60" as="geometry" />
        </mxCell>
        <mxCell id="bji3vDAeX96K5QnzMQ1H-66" style="edgeStyle=orthogonalEdgeStyle;rounded=0;orthogonalLoop=1;jettySize=auto;html=1;entryX=0.5;entryY=0;entryDx=0;entryDy=0;" edge="1" parent="1" source="bji3vDAeX96K5QnzMQ1H-2" target="bji3vDAeX96K5QnzMQ1H-14">
          <mxGeometry relative="1" as="geometry" />
        </mxCell>
        <mxCell id="bji3vDAeX96K5QnzMQ1H-67" style="edgeStyle=orthogonalEdgeStyle;rounded=0;orthogonalLoop=1;jettySize=auto;html=1;entryX=0;entryY=0.5;entryDx=0;entryDy=0;" edge="1" parent="1" source="bji3vDAeX96K5QnzMQ1H-2" target="bji3vDAeX96K5QnzMQ1H-15">
          <mxGeometry relative="1" as="geometry">
            <Array as="points">
              <mxPoint x="9" y="215" />
              <mxPoint x="9" y="340" />
            </Array>
          </mxGeometry>
        </mxCell>
        <mxCell id="bji3vDAeX96K5QnzMQ1H-68" style="edgeStyle=orthogonalEdgeStyle;rounded=0;orthogonalLoop=1;jettySize=auto;html=1;entryX=0;entryY=0.5;entryDx=0;entryDy=0;" edge="1" parent="1" source="bji3vDAeX96K5QnzMQ1H-2" target="bji3vDAeX96K5QnzMQ1H-16">
          <mxGeometry relative="1" as="geometry">
            <Array as="points">
              <mxPoint x="9" y="215" />
              <mxPoint x="9" y="410" />
            </Array>
          </mxGeometry>
        </mxCell>
        <mxCell id="bji3vDAeX96K5QnzMQ1H-69" style="edgeStyle=orthogonalEdgeStyle;rounded=0;orthogonalLoop=1;jettySize=auto;html=1;entryX=0;entryY=0.5;entryDx=0;entryDy=0;" edge="1" parent="1" source="bji3vDAeX96K5QnzMQ1H-2" target="bji3vDAeX96K5QnzMQ1H-17">
          <mxGeometry relative="1" as="geometry">
            <Array as="points">
              <mxPoint x="9" y="215" />
              <mxPoint x="9" y="470" />
            </Array>
          </mxGeometry>
        </mxCell>
        <mxCell id="bji3vDAeX96K5QnzMQ1H-2" value="Помещения" style="ellipse;whiteSpace=wrap;html=1;" vertex="1" parent="1">
          <mxGeometry x="29" y="190" width="120" height="50" as="geometry" />
        </mxCell>
        <mxCell id="bji3vDAeX96K5QnzMQ1H-70" style="edgeStyle=orthogonalEdgeStyle;rounded=0;orthogonalLoop=1;jettySize=auto;html=1;entryX=0;entryY=0.5;entryDx=0;entryDy=0;" edge="1" parent="1" source="bji3vDAeX96K5QnzMQ1H-3" target="bji3vDAeX96K5QnzMQ1H-10">
          <mxGeometry relative="1" as="geometry">
            <Array as="points">
              <mxPoint x="179" y="280" />
            </Array>
          </mxGeometry>
        </mxCell>
        <mxCell id="bji3vDAeX96K5QnzMQ1H-71" style="edgeStyle=orthogonalEdgeStyle;rounded=0;orthogonalLoop=1;jettySize=auto;html=1;entryX=0;entryY=0.5;entryDx=0;entryDy=0;" edge="1" parent="1" source="bji3vDAeX96K5QnzMQ1H-3" target="bji3vDAeX96K5QnzMQ1H-11">
          <mxGeometry relative="1" as="geometry">
            <Array as="points">
              <mxPoint x="179" y="340" />
            </Array>
          </mxGeometry>
        </mxCell>
        <mxCell id="bji3vDAeX96K5QnzMQ1H-72" style="edgeStyle=orthogonalEdgeStyle;rounded=0;orthogonalLoop=1;jettySize=auto;html=1;entryX=0;entryY=0.5;entryDx=0;entryDy=0;" edge="1" parent="1" source="bji3vDAeX96K5QnzMQ1H-3" target="bji3vDAeX96K5QnzMQ1H-12">
          <mxGeometry relative="1" as="geometry">
            <Array as="points">
              <mxPoint x="179" y="400" />
            </Array>
          </mxGeometry>
        </mxCell>
        <mxCell id="bji3vDAeX96K5QnzMQ1H-73" style="edgeStyle=orthogonalEdgeStyle;rounded=0;orthogonalLoop=1;jettySize=auto;html=1;entryX=0;entryY=0.5;entryDx=0;entryDy=0;" edge="1" parent="1" source="bji3vDAeX96K5QnzMQ1H-3" target="bji3vDAeX96K5QnzMQ1H-18">
          <mxGeometry relative="1" as="geometry">
            <Array as="points">
              <mxPoint x="179" y="460" />
            </Array>
          </mxGeometry>
        </mxCell>
        <mxCell id="bji3vDAeX96K5QnzMQ1H-3" value="Устройства" style="ellipse;whiteSpace=wrap;html=1;" vertex="1" parent="1">
          <mxGeometry x="179" y="190" width="120" height="50" as="geometry" />
        </mxCell>
        <mxCell id="bji3vDAeX96K5QnzMQ1H-4" value="" style="ellipse;whiteSpace=wrap;html=1;" vertex="1" parent="1">
          <mxGeometry x="349" y="210" width="120" height="50" as="geometry" />
        </mxCell>
        <mxCell id="bji3vDAeX96K5QnzMQ1H-5" value="" style="ellipse;whiteSpace=wrap;html=1;" vertex="1" parent="1">
          <mxGeometry x="708" y="190" width="120" height="50" as="geometry" />
        </mxCell>
        <mxCell id="bji3vDAeX96K5QnzMQ1H-86" style="edgeStyle=orthogonalEdgeStyle;rounded=0;orthogonalLoop=1;jettySize=auto;html=1;entryX=0;entryY=0.5;entryDx=0;entryDy=0;" edge="1" parent="1" source="bji3vDAeX96K5QnzMQ1H-6" target="bji3vDAeX96K5QnzMQ1H-36">
          <mxGeometry relative="1" as="geometry">
            <Array as="points">
              <mxPoint x="519" y="215.0000000000001" />
              <mxPoint x="519" y="280" />
            </Array>
          </mxGeometry>
        </mxCell>
        <mxCell id="bji3vDAeX96K5QnzMQ1H-88" style="edgeStyle=orthogonalEdgeStyle;rounded=0;orthogonalLoop=1;jettySize=auto;html=1;entryX=0;entryY=0.5;entryDx=0;entryDy=0;" edge="1" parent="1" source="bji3vDAeX96K5QnzMQ1H-6" target="bji3vDAeX96K5QnzMQ1H-39">
          <mxGeometry relative="1" as="geometry">
            <Array as="points">
              <mxPoint x="489" y="215" />
              <mxPoint x="489" y="485" />
              <mxPoint x="488" y="485" />
              <mxPoint x="488" y="750" />
            </Array>
          </mxGeometry>
        </mxCell>
        <mxCell id="bji3vDAeX96K5QnzMQ1H-6" value="" style="ellipse;whiteSpace=wrap;html=1;" vertex="1" parent="1">
          <mxGeometry x="538" y="190" width="120" height="50" as="geometry" />
        </mxCell>
        <mxCell id="bji3vDAeX96K5QnzMQ1H-87" style="edgeStyle=orthogonalEdgeStyle;rounded=0;orthogonalLoop=1;jettySize=auto;html=1;entryX=0;entryY=0.5;entryDx=0;entryDy=0;exitX=0;exitY=0.5;exitDx=0;exitDy=0;" edge="1" parent="1" source="bji3vDAeX96K5QnzMQ1H-6" target="bji3vDAeX96K5QnzMQ1H-38">
          <mxGeometry relative="1" as="geometry">
            <Array as="points">
              <mxPoint x="489" y="215" />
              <mxPoint x="489" y="330" />
              <mxPoint x="488" y="330" />
              <mxPoint x="488" y="450" />
            </Array>
          </mxGeometry>
        </mxCell>
        <mxCell id="bji3vDAeX96K5QnzMQ1H-7" value="Настройки" style="text;html=1;strokeColor=none;fillColor=none;align=center;verticalAlign=middle;whiteSpace=wrap;rounded=0;" vertex="1" parent="1">
          <mxGeometry x="548" y="200" width="100" height="30" as="geometry" />
        </mxCell>
        <mxCell id="bji3vDAeX96K5QnzMQ1H-100" style="edgeStyle=orthogonalEdgeStyle;rounded=0;orthogonalLoop=1;jettySize=auto;html=1;entryX=0;entryY=0.5;entryDx=0;entryDy=0;" edge="1" parent="1" source="bji3vDAeX96K5QnzMQ1H-8" target="bji3vDAeX96K5QnzMQ1H-43">
          <mxGeometry relative="1" as="geometry">
            <Array as="points">
              <mxPoint x="728" y="460" />
            </Array>
          </mxGeometry>
        </mxCell>
        <mxCell id="bji3vDAeX96K5QnzMQ1H-101" style="edgeStyle=orthogonalEdgeStyle;rounded=0;orthogonalLoop=1;jettySize=auto;html=1;entryX=0;entryY=0.5;entryDx=0;entryDy=0;" edge="1" parent="1" source="bji3vDAeX96K5QnzMQ1H-8" target="bji3vDAeX96K5QnzMQ1H-44">
          <mxGeometry relative="1" as="geometry">
            <Array as="points">
              <mxPoint x="728" y="660" />
            </Array>
          </mxGeometry>
        </mxCell>
        <mxCell id="bji3vDAeX96K5QnzMQ1H-8" value="Уборка и ее параметры" style="text;html=1;strokeColor=none;fillColor=none;align=center;verticalAlign=middle;whiteSpace=wrap;rounded=0;" vertex="1" parent="1">
          <mxGeometry x="718" y="200" width="100" height="30" as="geometry" />
        </mxCell>
        <mxCell id="bji3vDAeX96K5QnzMQ1H-9" value="Профиль" style="text;html=1;strokeColor=none;fillColor=none;align=center;verticalAlign=middle;whiteSpace=wrap;rounded=0;" vertex="1" parent="1">
          <mxGeometry x="359" y="220" width="100" height="30" as="geometry" />
        </mxCell>
        <mxCell id="bji3vDAeX96K5QnzMQ1H-10" value="добавить устройство" style="ellipse;whiteSpace=wrap;html=1;" vertex="1" parent="1">
          <mxGeometry x="199" y="260" width="120" height="40" as="geometry" />
        </mxCell>
        <mxCell id="bji3vDAeX96K5QnzMQ1H-11" value="Сканировать" style="ellipse;whiteSpace=wrap;html=1;" vertex="1" parent="1">
          <mxGeometry x="199" y="320" width="120" height="40" as="geometry" />
        </mxCell>
        <mxCell id="bji3vDAeX96K5QnzMQ1H-12" value="Создать умный сценарий" style="ellipse;whiteSpace=wrap;html=1;" vertex="1" parent="1">
          <mxGeometry x="199" y="380" width="120" height="40" as="geometry" />
        </mxCell>
        <mxCell id="bji3vDAeX96K5QnzMQ1H-61" style="edgeStyle=orthogonalEdgeStyle;rounded=0;orthogonalLoop=1;jettySize=auto;html=1;entryX=0.5;entryY=0;entryDx=0;entryDy=0;" edge="1" parent="1" source="bji3vDAeX96K5QnzMQ1H-13" target="bji3vDAeX96K5QnzMQ1H-2">
          <mxGeometry relative="1" as="geometry" />
        </mxCell>
        <mxCell id="bji3vDAeX96K5QnzMQ1H-62" style="edgeStyle=orthogonalEdgeStyle;rounded=0;orthogonalLoop=1;jettySize=auto;html=1;entryX=0.5;entryY=0;entryDx=0;entryDy=0;" edge="1" parent="1" source="bji3vDAeX96K5QnzMQ1H-13" target="bji3vDAeX96K5QnzMQ1H-3">
          <mxGeometry relative="1" as="geometry" />
        </mxCell>
        <mxCell id="bji3vDAeX96K5QnzMQ1H-63" style="edgeStyle=orthogonalEdgeStyle;rounded=0;orthogonalLoop=1;jettySize=auto;html=1;exitX=0.5;exitY=1;exitDx=0;exitDy=0;entryX=0.5;entryY=0;entryDx=0;entryDy=0;" edge="1" parent="1" source="bji3vDAeX96K5QnzMQ1H-13" target="bji3vDAeX96K5QnzMQ1H-4">
          <mxGeometry relative="1" as="geometry" />
        </mxCell>
        <mxCell id="bji3vDAeX96K5QnzMQ1H-64" style="edgeStyle=orthogonalEdgeStyle;rounded=0;orthogonalLoop=1;jettySize=auto;html=1;entryX=0.5;entryY=0;entryDx=0;entryDy=0;" edge="1" parent="1" source="bji3vDAeX96K5QnzMQ1H-13" target="bji3vDAeX96K5QnzMQ1H-6">
          <mxGeometry relative="1" as="geometry" />
        </mxCell>
        <mxCell id="bji3vDAeX96K5QnzMQ1H-65" style="edgeStyle=orthogonalEdgeStyle;rounded=0;orthogonalLoop=1;jettySize=auto;html=1;entryX=0.5;entryY=0;entryDx=0;entryDy=0;" edge="1" parent="1" source="bji3vDAeX96K5QnzMQ1H-13" target="bji3vDAeX96K5QnzMQ1H-5">
          <mxGeometry relative="1" as="geometry" />
        </mxCell>
        <mxCell id="bji3vDAeX96K5QnzMQ1H-74" style="edgeStyle=orthogonalEdgeStyle;rounded=0;orthogonalLoop=1;jettySize=auto;html=1;entryX=0;entryY=0.5;entryDx=0;entryDy=0;" edge="1" parent="1" source="bji3vDAeX96K5QnzMQ1H-13" target="bji3vDAeX96K5QnzMQ1H-19">
          <mxGeometry relative="1" as="geometry">
            <Array as="points">
              <mxPoint x="409" y="190" />
              <mxPoint x="329" y="190" />
              <mxPoint x="329" y="300" />
            </Array>
          </mxGeometry>
        </mxCell>
        <mxCell id="bji3vDAeX96K5QnzMQ1H-75" style="edgeStyle=orthogonalEdgeStyle;rounded=0;orthogonalLoop=1;jettySize=auto;html=1;entryX=0;entryY=0.5;entryDx=0;entryDy=0;" edge="1" parent="1" source="bji3vDAeX96K5QnzMQ1H-13" target="bji3vDAeX96K5QnzMQ1H-20">
          <mxGeometry relative="1" as="geometry">
            <Array as="points">
              <mxPoint x="409" y="190" />
              <mxPoint x="329" y="190" />
              <mxPoint x="329" y="350" />
            </Array>
          </mxGeometry>
        </mxCell>
        <mxCell id="bji3vDAeX96K5QnzMQ1H-76" style="edgeStyle=orthogonalEdgeStyle;rounded=0;orthogonalLoop=1;jettySize=auto;html=1;entryX=0;entryY=0.5;entryDx=0;entryDy=0;" edge="1" parent="1" source="bji3vDAeX96K5QnzMQ1H-13" target="bji3vDAeX96K5QnzMQ1H-21">
          <mxGeometry relative="1" as="geometry">
            <Array as="points">
              <mxPoint x="409" y="190" />
              <mxPoint x="329" y="190" />
              <mxPoint x="329" y="400" />
            </Array>
          </mxGeometry>
        </mxCell>
        <mxCell id="bji3vDAeX96K5QnzMQ1H-77" style="edgeStyle=orthogonalEdgeStyle;rounded=0;orthogonalLoop=1;jettySize=auto;html=1;entryX=0;entryY=0.5;entryDx=0;entryDy=0;" edge="1" parent="1" source="bji3vDAeX96K5QnzMQ1H-13" target="bji3vDAeX96K5QnzMQ1H-22">
          <mxGeometry relative="1" as="geometry">
            <Array as="points">
              <mxPoint x="409" y="190" />
              <mxPoint x="329" y="190" />
              <mxPoint x="329" y="450" />
            </Array>
          </mxGeometry>
        </mxCell>
        <mxCell id="bji3vDAeX96K5QnzMQ1H-78" style="edgeStyle=orthogonalEdgeStyle;rounded=0;orthogonalLoop=1;jettySize=auto;html=1;entryX=0;entryY=0.5;entryDx=0;entryDy=0;" edge="1" parent="1" source="bji3vDAeX96K5QnzMQ1H-13" target="bji3vDAeX96K5QnzMQ1H-23">
          <mxGeometry relative="1" as="geometry">
            <Array as="points">
              <mxPoint x="409" y="190" />
              <mxPoint x="329" y="190" />
              <mxPoint x="329" y="500" />
            </Array>
          </mxGeometry>
        </mxCell>
        <mxCell id="bji3vDAeX96K5QnzMQ1H-79" style="edgeStyle=orthogonalEdgeStyle;rounded=0;orthogonalLoop=1;jettySize=auto;html=1;entryX=0;entryY=0.5;entryDx=0;entryDy=0;" edge="1" parent="1" source="bji3vDAeX96K5QnzMQ1H-13" target="bji3vDAeX96K5QnzMQ1H-24">
          <mxGeometry relative="1" as="geometry">
            <Array as="points">
              <mxPoint x="409" y="190" />
              <mxPoint x="329" y="190" />
              <mxPoint x="329" y="550" />
            </Array>
          </mxGeometry>
        </mxCell>
        <mxCell id="bji3vDAeX96K5QnzMQ1H-80" style="edgeStyle=orthogonalEdgeStyle;rounded=0;orthogonalLoop=1;jettySize=auto;html=1;entryX=0;entryY=0.5;entryDx=0;entryDy=0;" edge="1" parent="1" source="bji3vDAeX96K5QnzMQ1H-13" target="bji3vDAeX96K5QnzMQ1H-25">
          <mxGeometry relative="1" as="geometry">
            <Array as="points">
              <mxPoint x="409" y="190" />
              <mxPoint x="329" y="190" />
              <mxPoint x="329" y="600" />
            </Array>
          </mxGeometry>
        </mxCell>
        <mxCell id="bji3vDAeX96K5QnzMQ1H-81" style="edgeStyle=orthogonalEdgeStyle;rounded=0;orthogonalLoop=1;jettySize=auto;html=1;entryX=0;entryY=0.5;entryDx=0;entryDy=0;" edge="1" parent="1" source="bji3vDAeX96K5QnzMQ1H-13" target="bji3vDAeX96K5QnzMQ1H-26">
          <mxGeometry relative="1" as="geometry">
            <Array as="points">
              <mxPoint x="409" y="190" />
              <mxPoint x="329" y="190" />
              <mxPoint x="329" y="655" />
            </Array>
          </mxGeometry>
        </mxCell>
        <mxCell id="bji3vDAeX96K5QnzMQ1H-13" value="Mi Home" style="ellipse;whiteSpace=wrap;html=1;" vertex="1" parent="1">
          <mxGeometry x="349" y="120" width="120" height="40" as="geometry" />
        </mxCell>
        <mxCell id="bji3vDAeX96K5QnzMQ1H-14" value="Кухня" style="ellipse;whiteSpace=wrap;html=1;" vertex="1" parent="1">
          <mxGeometry x="29" y="260" width="120" height="40" as="geometry" />
        </mxCell>
        <mxCell id="bji3vDAeX96K5QnzMQ1H-15" value="Спальня" style="ellipse;whiteSpace=wrap;html=1;" vertex="1" parent="1">
          <mxGeometry x="29" y="320" width="120" height="40" as="geometry" />
        </mxCell>
        <mxCell id="bji3vDAeX96K5QnzMQ1H-16" value="Зал" style="ellipse;whiteSpace=wrap;html=1;" vertex="1" parent="1">
          <mxGeometry x="29" y="390" width="120" height="40" as="geometry" />
        </mxCell>
        <mxCell id="bji3vDAeX96K5QnzMQ1H-17" value="Управление комнатами" style="ellipse;whiteSpace=wrap;html=1;" vertex="1" parent="1">
          <mxGeometry x="29" y="450" width="120" height="40" as="geometry" />
        </mxCell>
        <mxCell id="bji3vDAeX96K5QnzMQ1H-18" value="Правка" style="ellipse;whiteSpace=wrap;html=1;" vertex="1" parent="1">
          <mxGeometry x="199" y="440" width="120" height="40" as="geometry" />
        </mxCell>
        <mxCell id="bji3vDAeX96K5QnzMQ1H-19" value="Поделиться" style="ellipse;whiteSpace=wrap;html=1;" vertex="1" parent="1">
          <mxGeometry x="349" y="280" width="120" height="40" as="geometry" />
        </mxCell>
        <mxCell id="bji3vDAeX96K5QnzMQ1H-20" value="Голосовой помощник" style="ellipse;whiteSpace=wrap;html=1;" vertex="1" parent="1">
          <mxGeometry x="349" y="330" width="120" height="40" as="geometry" />
        </mxCell>
        <mxCell id="bji3vDAeX96K5QnzMQ1H-21" value="Виджеты" style="ellipse;whiteSpace=wrap;html=1;" vertex="1" parent="1">
          <mxGeometry x="349" y="380" width="120" height="40" as="geometry" />
        </mxCell>
        <mxCell id="bji3vDAeX96K5QnzMQ1H-22" value="Mi Home for Watch" style="ellipse;whiteSpace=wrap;html=1;" vertex="1" parent="1">
          <mxGeometry x="349" y="430" width="120" height="40" as="geometry" />
        </mxCell>
        <mxCell id="bji3vDAeX96K5QnzMQ1H-23" value="Втулки и шлюзы" style="ellipse;whiteSpace=wrap;html=1;" vertex="1" parent="1">
          <mxGeometry x="349" y="480" width="120" height="40" as="geometry" />
        </mxCell>
        <mxCell id="bji3vDAeX96K5QnzMQ1H-24" value="Настройки" style="ellipse;whiteSpace=wrap;html=1;" vertex="1" parent="1">
          <mxGeometry x="349" y="530" width="120" height="40" as="geometry" />
        </mxCell>
        <mxCell id="bji3vDAeX96K5QnzMQ1H-25" value="Эскпериментальные функции" style="ellipse;whiteSpace=wrap;html=1;" vertex="1" parent="1">
          <mxGeometry x="349" y="580" width="130" height="40" as="geometry" />
        </mxCell>
        <mxCell id="bji3vDAeX96K5QnzMQ1H-26" value="Справка и обратная связь" style="ellipse;whiteSpace=wrap;html=1;" vertex="1" parent="1">
          <mxGeometry x="354" y="630" width="120" height="50" as="geometry" />
        </mxCell>
        <mxCell id="bji3vDAeX96K5QnzMQ1H-27" value="Оценить" style="ellipse;whiteSpace=wrap;html=1;" vertex="1" parent="1">
          <mxGeometry x="354" y="690" width="120" height="40" as="geometry" />
        </mxCell>
        <mxCell id="bji3vDAeX96K5QnzMQ1H-29" value="Управление домом" style="ellipse;whiteSpace=wrap;html=1;" vertex="1" parent="1">
          <mxGeometry x="588" y="310" width="120" height="40" as="geometry" />
        </mxCell>
        <mxCell id="bji3vDAeX96K5QnzMQ1H-30" value="Проверить наличие обновлений" style="ellipse;whiteSpace=wrap;html=1;" vertex="1" parent="1">
          <mxGeometry x="588" y="360" width="120" height="50" as="geometry" />
        </mxCell>
        <mxCell id="bji3vDAeX96K5QnzMQ1H-31" value="Поиск" style="ellipse;whiteSpace=wrap;html=1;" vertex="1" parent="1">
          <mxGeometry x="568" y="480" width="120" height="40" as="geometry" />
        </mxCell>
        <mxCell id="bji3vDAeX96K5QnzMQ1H-32" value="Звук" style="ellipse;whiteSpace=wrap;html=1;" vertex="1" parent="1">
          <mxGeometry x="568" y="530" width="120" height="40" as="geometry" />
        </mxCell>
        <mxCell id="bji3vDAeX96K5QnzMQ1H-33" value="Быстрые действия" style="ellipse;whiteSpace=wrap;html=1;" vertex="1" parent="1">
          <mxGeometry x="568" y="580" width="120" height="40" as="geometry" />
        </mxCell>
        <mxCell id="bji3vDAeX96K5QnzMQ1H-34" value="параметры безопасности" style="ellipse;whiteSpace=wrap;html=1;" vertex="1" parent="1">
          <mxGeometry x="568" y="630" width="120" height="40" as="geometry" />
        </mxCell>
        <mxCell id="bji3vDAeX96K5QnzMQ1H-35" value="Настрйки уведомлений" style="ellipse;whiteSpace=wrap;html=1;" vertex="1" parent="1">
          <mxGeometry x="568" y="680" width="120" height="40" as="geometry" />
        </mxCell>
        <mxCell id="bji3vDAeX96K5QnzMQ1H-89" style="edgeStyle=orthogonalEdgeStyle;rounded=0;orthogonalLoop=1;jettySize=auto;html=1;entryX=0;entryY=0.5;entryDx=0;entryDy=0;" edge="1" parent="1" source="bji3vDAeX96K5QnzMQ1H-36" target="bji3vDAeX96K5QnzMQ1H-29">
          <mxGeometry relative="1" as="geometry">
            <Array as="points">
              <mxPoint x="569" y="320" />
              <mxPoint x="568" y="320" />
              <mxPoint x="568" y="330" />
            </Array>
          </mxGeometry>
        </mxCell>
        <mxCell id="bji3vDAeX96K5QnzMQ1H-90" style="edgeStyle=orthogonalEdgeStyle;rounded=0;orthogonalLoop=1;jettySize=auto;html=1;entryX=0;entryY=0.5;entryDx=0;entryDy=0;" edge="1" parent="1" source="bji3vDAeX96K5QnzMQ1H-36" target="bji3vDAeX96K5QnzMQ1H-30">
          <mxGeometry relative="1" as="geometry">
            <Array as="points">
              <mxPoint x="568" y="385" />
            </Array>
          </mxGeometry>
        </mxCell>
        <mxCell id="bji3vDAeX96K5QnzMQ1H-36" value="Устройство" style="ellipse;whiteSpace=wrap;html=1;" vertex="1" parent="1">
          <mxGeometry x="538" y="260" width="120" height="40" as="geometry" />
        </mxCell>
        <mxCell id="bji3vDAeX96K5QnzMQ1H-91" style="edgeStyle=orthogonalEdgeStyle;rounded=0;orthogonalLoop=1;jettySize=auto;html=1;entryX=0;entryY=0.5;entryDx=0;entryDy=0;" edge="1" parent="1" source="bji3vDAeX96K5QnzMQ1H-38" target="bji3vDAeX96K5QnzMQ1H-31">
          <mxGeometry relative="1" as="geometry">
            <Array as="points">
              <mxPoint x="549" y="490" />
              <mxPoint x="548" y="490" />
              <mxPoint x="548" y="500" />
            </Array>
          </mxGeometry>
        </mxCell>
        <mxCell id="bji3vDAeX96K5QnzMQ1H-92" style="edgeStyle=orthogonalEdgeStyle;rounded=0;orthogonalLoop=1;jettySize=auto;html=1;entryX=0;entryY=0.5;entryDx=0;entryDy=0;" edge="1" parent="1" source="bji3vDAeX96K5QnzMQ1H-38" target="bji3vDAeX96K5QnzMQ1H-32">
          <mxGeometry relative="1" as="geometry">
            <Array as="points">
              <mxPoint x="548" y="550" />
            </Array>
          </mxGeometry>
        </mxCell>
        <mxCell id="bji3vDAeX96K5QnzMQ1H-93" style="edgeStyle=orthogonalEdgeStyle;rounded=0;orthogonalLoop=1;jettySize=auto;html=1;entryX=0;entryY=0.5;entryDx=0;entryDy=0;" edge="1" parent="1" source="bji3vDAeX96K5QnzMQ1H-38" target="bji3vDAeX96K5QnzMQ1H-33">
          <mxGeometry relative="1" as="geometry">
            <Array as="points">
              <mxPoint x="548" y="600" />
            </Array>
          </mxGeometry>
        </mxCell>
        <mxCell id="bji3vDAeX96K5QnzMQ1H-94" style="edgeStyle=orthogonalEdgeStyle;rounded=0;orthogonalLoop=1;jettySize=auto;html=1;entryX=0;entryY=0.5;entryDx=0;entryDy=0;" edge="1" parent="1" source="bji3vDAeX96K5QnzMQ1H-38" target="bji3vDAeX96K5QnzMQ1H-34">
          <mxGeometry relative="1" as="geometry">
            <Array as="points">
              <mxPoint x="548" y="650" />
            </Array>
          </mxGeometry>
        </mxCell>
        <mxCell id="bji3vDAeX96K5QnzMQ1H-95" style="edgeStyle=orthogonalEdgeStyle;rounded=0;orthogonalLoop=1;jettySize=auto;html=1;entryX=0;entryY=0.5;entryDx=0;entryDy=0;" edge="1" parent="1" source="bji3vDAeX96K5QnzMQ1H-38" target="bji3vDAeX96K5QnzMQ1H-35">
          <mxGeometry relative="1" as="geometry">
            <Array as="points">
              <mxPoint x="548" y="700" />
            </Array>
          </mxGeometry>
        </mxCell>
        <mxCell id="bji3vDAeX96K5QnzMQ1H-38" value="Общие" style="ellipse;whiteSpace=wrap;html=1;" vertex="1" parent="1">
          <mxGeometry x="508" y="430" width="120" height="40" as="geometry" />
        </mxCell>
        <mxCell id="bji3vDAeX96K5QnzMQ1H-96" style="edgeStyle=orthogonalEdgeStyle;rounded=0;orthogonalLoop=1;jettySize=auto;html=1;entryX=1;entryY=0.5;entryDx=0;entryDy=0;" edge="1" parent="1" source="bji3vDAeX96K5QnzMQ1H-39" target="bji3vDAeX96K5QnzMQ1H-41">
          <mxGeometry relative="1" as="geometry" />
        </mxCell>
        <mxCell id="bji3vDAeX96K5QnzMQ1H-98" style="edgeStyle=orthogonalEdgeStyle;rounded=0;orthogonalLoop=1;jettySize=auto;html=1;entryX=0;entryY=0.5;entryDx=0;entryDy=0;" edge="1" parent="1" source="bji3vDAeX96K5QnzMQ1H-39" target="bji3vDAeX96K5QnzMQ1H-40">
          <mxGeometry relative="1" as="geometry" />
        </mxCell>
        <mxCell id="bji3vDAeX96K5QnzMQ1H-39" value="Язык и регион" style="ellipse;whiteSpace=wrap;html=1;" vertex="1" parent="1">
          <mxGeometry x="508" y="730" width="120" height="40" as="geometry" />
        </mxCell>
        <mxCell id="bji3vDAeX96K5QnzMQ1H-40" value="Регион" style="ellipse;whiteSpace=wrap;html=1;" vertex="1" parent="1">
          <mxGeometry x="598" y="770" width="120" height="40" as="geometry" />
        </mxCell>
        <mxCell id="bji3vDAeX96K5QnzMQ1H-41" value="Языки" style="ellipse;whiteSpace=wrap;html=1;" vertex="1" parent="1">
          <mxGeometry x="389" y="777" width="120" height="40" as="geometry" />
        </mxCell>
        <mxCell id="bji3vDAeX96K5QnzMQ1H-102" style="edgeStyle=orthogonalEdgeStyle;rounded=0;orthogonalLoop=1;jettySize=auto;html=1;entryX=0;entryY=0.5;entryDx=0;entryDy=0;" edge="1" parent="1" source="bji3vDAeX96K5QnzMQ1H-42" target="bji3vDAeX96K5QnzMQ1H-45">
          <mxGeometry relative="1" as="geometry">
            <Array as="points">
              <mxPoint x="868" y="200" />
            </Array>
          </mxGeometry>
        </mxCell>
        <mxCell id="bji3vDAeX96K5QnzMQ1H-103" style="edgeStyle=orthogonalEdgeStyle;rounded=0;orthogonalLoop=1;jettySize=auto;html=1;entryX=0;entryY=0.5;entryDx=0;entryDy=0;" edge="1" parent="1" source="bji3vDAeX96K5QnzMQ1H-42" target="bji3vDAeX96K5QnzMQ1H-46">
          <mxGeometry relative="1" as="geometry" />
        </mxCell>
        <mxCell id="bji3vDAeX96K5QnzMQ1H-104" style="edgeStyle=orthogonalEdgeStyle;rounded=0;orthogonalLoop=1;jettySize=auto;html=1;exitX=1;exitY=0.5;exitDx=0;exitDy=0;entryX=0;entryY=0.5;entryDx=0;entryDy=0;" edge="1" parent="1" source="bji3vDAeX96K5QnzMQ1H-42" target="bji3vDAeX96K5QnzMQ1H-47">
          <mxGeometry relative="1" as="geometry" />
        </mxCell>
        <mxCell id="bji3vDAeX96K5QnzMQ1H-105" style="edgeStyle=orthogonalEdgeStyle;rounded=0;orthogonalLoop=1;jettySize=auto;html=1;entryX=0;entryY=0.5;entryDx=0;entryDy=0;" edge="1" parent="1" source="bji3vDAeX96K5QnzMQ1H-42" target="bji3vDAeX96K5QnzMQ1H-48">
          <mxGeometry relative="1" as="geometry">
            <Array as="points">
              <mxPoint x="869" y="290" />
              <mxPoint x="869" y="330" />
              <mxPoint x="878" y="330" />
              <mxPoint x="878" y="350" />
            </Array>
          </mxGeometry>
        </mxCell>
        <mxCell id="bji3vDAeX96K5QnzMQ1H-42" value="Карта" style="ellipse;whiteSpace=wrap;html=1;" vertex="1" parent="1">
          <mxGeometry x="748" y="270" width="120" height="40" as="geometry" />
        </mxCell>
        <mxCell id="bji3vDAeX96K5QnzMQ1H-112" style="edgeStyle=orthogonalEdgeStyle;rounded=0;orthogonalLoop=1;jettySize=auto;html=1;entryX=0;entryY=0.5;entryDx=0;entryDy=0;" edge="1" parent="1" source="bji3vDAeX96K5QnzMQ1H-43" target="bji3vDAeX96K5QnzMQ1H-54">
          <mxGeometry relative="1" as="geometry">
            <Array as="points">
              <mxPoint x="869" y="460" />
              <mxPoint x="869" y="420" />
            </Array>
          </mxGeometry>
        </mxCell>
        <mxCell id="bji3vDAeX96K5QnzMQ1H-113" style="edgeStyle=orthogonalEdgeStyle;rounded=0;orthogonalLoop=1;jettySize=auto;html=1;entryX=0;entryY=0.5;entryDx=0;entryDy=0;" edge="1" parent="1" source="bji3vDAeX96K5QnzMQ1H-43" target="bji3vDAeX96K5QnzMQ1H-55">
          <mxGeometry relative="1" as="geometry" />
        </mxCell>
        <mxCell id="bji3vDAeX96K5QnzMQ1H-114" style="edgeStyle=orthogonalEdgeStyle;rounded=0;orthogonalLoop=1;jettySize=auto;html=1;entryX=0;entryY=0.5;entryDx=0;entryDy=0;" edge="1" parent="1" source="bji3vDAeX96K5QnzMQ1H-43" target="bji3vDAeX96K5QnzMQ1H-56">
          <mxGeometry relative="1" as="geometry">
            <Array as="points">
              <mxPoint x="868" y="523" />
            </Array>
          </mxGeometry>
        </mxCell>
        <mxCell id="bji3vDAeX96K5QnzMQ1H-43" value="Настройки очистки" style="ellipse;whiteSpace=wrap;html=1;" vertex="1" parent="1">
          <mxGeometry x="748" y="440" width="120" height="40" as="geometry" />
        </mxCell>
        <mxCell id="bji3vDAeX96K5QnzMQ1H-118" style="edgeStyle=orthogonalEdgeStyle;rounded=0;orthogonalLoop=1;jettySize=auto;html=1;entryX=0;entryY=0.5;entryDx=0;entryDy=0;" edge="1" parent="1" source="bji3vDAeX96K5QnzMQ1H-44" target="bji3vDAeX96K5QnzMQ1H-59">
          <mxGeometry relative="1" as="geometry">
            <Array as="points">
              <mxPoint x="868" y="720" />
            </Array>
          </mxGeometry>
        </mxCell>
        <mxCell id="bji3vDAeX96K5QnzMQ1H-44" value="Параметры" style="ellipse;whiteSpace=wrap;html=1;" vertex="1" parent="1">
          <mxGeometry x="748" y="640" width="120" height="40" as="geometry" />
        </mxCell>
        <mxCell id="bji3vDAeX96K5QnzMQ1H-45" value="Запретная зона" style="ellipse;whiteSpace=wrap;html=1;" vertex="1" parent="1">
          <mxGeometry x="888" y="180" width="120" height="40" as="geometry" />
        </mxCell>
        <mxCell id="bji3vDAeX96K5QnzMQ1H-46" value="Задать зону уборки" style="ellipse;whiteSpace=wrap;html=1;" vertex="1" parent="1">
          <mxGeometry x="888" y="230" width="120" height="40" as="geometry" />
        </mxCell>
        <mxCell id="bji3vDAeX96K5QnzMQ1H-47" value="Создать карту" style="ellipse;whiteSpace=wrap;html=1;" vertex="1" parent="1">
          <mxGeometry x="908" y="280" width="120" height="40" as="geometry" />
        </mxCell>
        <mxCell id="bji3vDAeX96K5QnzMQ1H-106" style="edgeStyle=orthogonalEdgeStyle;rounded=0;orthogonalLoop=1;jettySize=auto;html=1;entryX=0;entryY=0.5;entryDx=0;entryDy=0;" edge="1" parent="1" source="bji3vDAeX96K5QnzMQ1H-48" target="bji3vDAeX96K5QnzMQ1H-53">
          <mxGeometry relative="1" as="geometry">
            <Array as="points">
              <mxPoint x="1038" y="350" />
              <mxPoint x="1038" y="260" />
            </Array>
          </mxGeometry>
        </mxCell>
        <mxCell id="bji3vDAeX96K5QnzMQ1H-107" style="edgeStyle=orthogonalEdgeStyle;rounded=0;orthogonalLoop=1;jettySize=auto;html=1;entryX=0;entryY=0.5;entryDx=0;entryDy=0;" edge="1" parent="1" source="bji3vDAeX96K5QnzMQ1H-48" target="bji3vDAeX96K5QnzMQ1H-52">
          <mxGeometry relative="1" as="geometry" />
        </mxCell>
        <mxCell id="bji3vDAeX96K5QnzMQ1H-108" style="edgeStyle=orthogonalEdgeStyle;rounded=0;orthogonalLoop=1;jettySize=auto;html=1;entryX=0;entryY=0.5;entryDx=0;entryDy=0;" edge="1" parent="1" source="bji3vDAeX96K5QnzMQ1H-48" target="bji3vDAeX96K5QnzMQ1H-49">
          <mxGeometry relative="1" as="geometry" />
        </mxCell>
        <mxCell id="bji3vDAeX96K5QnzMQ1H-109" style="edgeStyle=orthogonalEdgeStyle;rounded=0;orthogonalLoop=1;jettySize=auto;html=1;entryX=0;entryY=0.5;entryDx=0;entryDy=0;" edge="1" parent="1" source="bji3vDAeX96K5QnzMQ1H-48" target="bji3vDAeX96K5QnzMQ1H-50">
          <mxGeometry relative="1" as="geometry">
            <Array as="points">
              <mxPoint x="1038" y="350" />
              <mxPoint x="1038" y="390" />
              <mxPoint x="1039" y="390" />
              <mxPoint x="1039" y="410" />
            </Array>
          </mxGeometry>
        </mxCell>
        <mxCell id="bji3vDAeX96K5QnzMQ1H-110" style="edgeStyle=orthogonalEdgeStyle;rounded=0;orthogonalLoop=1;jettySize=auto;html=1;entryX=0;entryY=0.5;entryDx=0;entryDy=0;" edge="1" parent="1" source="bji3vDAeX96K5QnzMQ1H-48" target="bji3vDAeX96K5QnzMQ1H-51">
          <mxGeometry relative="1" as="geometry">
            <Array as="points">
              <mxPoint x="1038" y="350" />
              <mxPoint x="1038" y="405" />
              <mxPoint x="1039" y="405" />
              <mxPoint x="1039" y="460" />
            </Array>
          </mxGeometry>
        </mxCell>
        <mxCell id="bji3vDAeX96K5QnzMQ1H-48" value="Существующая карта" style="ellipse;whiteSpace=wrap;html=1;" vertex="1" parent="1">
          <mxGeometry x="898" y="330" width="120" height="40" as="geometry" />
        </mxCell>
        <mxCell id="bji3vDAeX96K5QnzMQ1H-49" value="переименовать" style="ellipse;whiteSpace=wrap;html=1;" vertex="1" parent="1">
          <mxGeometry x="1049" y="340" width="120" height="40" as="geometry" />
        </mxCell>
        <mxCell id="bji3vDAeX96K5QnzMQ1H-50" value="восстановить карту" style="ellipse;whiteSpace=wrap;html=1;" vertex="1" parent="1">
          <mxGeometry x="1049" y="390" width="120" height="40" as="geometry" />
        </mxCell>
        <mxCell id="bji3vDAeX96K5QnzMQ1H-51" value="удалить" style="ellipse;whiteSpace=wrap;html=1;" vertex="1" parent="1">
          <mxGeometry x="1049" y="440" width="120" height="40" as="geometry" />
        </mxCell>
        <mxCell id="bji3vDAeX96K5QnzMQ1H-52" value="объединить зоны" style="ellipse;whiteSpace=wrap;html=1;" vertex="1" parent="1">
          <mxGeometry x="1049" y="290" width="120" height="40" as="geometry" />
        </mxCell>
        <mxCell id="bji3vDAeX96K5QnzMQ1H-53" value="разделить зоны" style="ellipse;whiteSpace=wrap;html=1;" vertex="1" parent="1">
          <mxGeometry x="1048" y="240" width="120" height="40" as="geometry" />
        </mxCell>
        <mxCell id="bji3vDAeX96K5QnzMQ1H-54" value="Режим уборки" style="ellipse;whiteSpace=wrap;html=1;" vertex="1" parent="1">
          <mxGeometry x="888" y="400" width="120" height="40" as="geometry" />
        </mxCell>
        <mxCell id="bji3vDAeX96K5QnzMQ1H-55" value="Последовательность уборки" style="ellipse;whiteSpace=wrap;html=1;" vertex="1" parent="1">
          <mxGeometry x="898" y="445" width="120" height="50" as="geometry" />
        </mxCell>
        <mxCell id="bji3vDAeX96K5QnzMQ1H-56" value="Схема уборки" style="ellipse;whiteSpace=wrap;html=1;" vertex="1" parent="1">
          <mxGeometry x="888" y="503" width="120" height="40" as="geometry" />
        </mxCell>
        <mxCell id="bji3vDAeX96K5QnzMQ1H-57" value="Область уборки" style="ellipse;whiteSpace=wrap;html=1;" vertex="1" parent="1">
          <mxGeometry x="888" y="600" width="120" height="40" as="geometry" />
        </mxCell>
        <mxCell id="bji3vDAeX96K5QnzMQ1H-58" value="Время уборки" style="ellipse;whiteSpace=wrap;html=1;" vertex="1" parent="1">
          <mxGeometry x="888" y="650" width="120" height="40" as="geometry" />
        </mxCell>
        <mxCell id="bji3vDAeX96K5QnzMQ1H-59" value="Заряд" style="ellipse;whiteSpace=wrap;html=1;" vertex="1" parent="1">
          <mxGeometry x="888" y="700" width="120" height="40" as="geometry" />
        </mxCell>
        <mxCell id="bji3vDAeX96K5QnzMQ1H-82" style="edgeStyle=orthogonalEdgeStyle;rounded=0;orthogonalLoop=1;jettySize=auto;html=1;entryX=-0.004;entryY=0.662;entryDx=0;entryDy=0;entryPerimeter=0;" edge="1" parent="1" source="bji3vDAeX96K5QnzMQ1H-13" target="bji3vDAeX96K5QnzMQ1H-27">
          <mxGeometry relative="1" as="geometry">
            <Array as="points">
              <mxPoint x="409" y="190" />
              <mxPoint x="329" y="190" />
              <mxPoint x="329" y="717" />
            </Array>
          </mxGeometry>
        </mxCell>
        <mxCell id="bji3vDAeX96K5QnzMQ1H-99" style="edgeStyle=orthogonalEdgeStyle;rounded=0;orthogonalLoop=1;jettySize=auto;html=1;entryX=0.005;entryY=0.649;entryDx=0;entryDy=0;entryPerimeter=0;" edge="1" parent="1" source="bji3vDAeX96K5QnzMQ1H-5" target="bji3vDAeX96K5QnzMQ1H-42">
          <mxGeometry relative="1" as="geometry">
            <Array as="points">
              <mxPoint x="729" y="260" />
              <mxPoint x="728" y="260" />
              <mxPoint x="728" y="296" />
            </Array>
          </mxGeometry>
        </mxCell>
        <mxCell id="bji3vDAeX96K5QnzMQ1H-116" style="edgeStyle=orthogonalEdgeStyle;rounded=0;orthogonalLoop=1;jettySize=auto;html=1;entryX=-0.014;entryY=0.649;entryDx=0;entryDy=0;entryPerimeter=0;" edge="1" parent="1" source="bji3vDAeX96K5QnzMQ1H-44" target="bji3vDAeX96K5QnzMQ1H-57">
          <mxGeometry relative="1" as="geometry">
            <Array as="points">
              <mxPoint x="869" y="660" />
              <mxPoint x="869" y="626" />
            </Array>
          </mxGeometry>
        </mxCell>
        <mxCell id="bji3vDAeX96K5QnzMQ1H-117" style="edgeStyle=orthogonalEdgeStyle;rounded=0;orthogonalLoop=1;jettySize=auto;html=1;entryX=0;entryY=0.662;entryDx=0;entryDy=0;entryPerimeter=0;" edge="1" parent="1" source="bji3vDAeX96K5QnzMQ1H-44" target="bji3vDAeX96K5QnzMQ1H-58">
          <mxGeometry relative="1" as="geometry" />
        </mxCell>
      </root>
    </mxGraphModel>
  </diagram>
</mxfile>
